HIERARCHY
ROOT Hips
{
	OFFSET 0.000000 0.000000 0.000000
	CHANNELS 6 Xposition Yposition Zposition Xrotation Yrotation Zrotation
	JOINT LeftUpLeg_virtual
	{
		OFFSET 0.000000 0.000000 0.000000
		CHANNELS 3 Xrotation Yrotation Zrotation
		JOINT LeftUpLeg
		{
			OFFSET 11.394100 -6.187798 -0.413800
			CHANNELS 3 Xrotation Yrotation Zrotation
			JOINT LeftLeg
			{
				OFFSET 0.430247 -32.302673 3.732800
				CHANNELS 3 Xrotation Yrotation Zrotation
				JOINT LeftFoot
				{
					OFFSET -0.430247 -48.264931 -6.423300
					CHANNELS 3 Xrotation Yrotation Zrotation
					JOINT LeftToeBase
					{
						OFFSET 4.230900 -16.068199 23.438400
						CHANNELS 3 Xrotation Yrotation Zrotation
						JOINT LeftToe_End
						{
							OFFSET 4.510700 0.695400 19.974600
							CHANNELS 3 Xrotation Yrotation Zrotation
							End Site
							{
								OFFSET 0 0 0
							}
						}
					}
				}
			}
		}
	}
	JOINT RightUpLeg_virtual
	{
		OFFSET 0.000000 0.000000 0.000000
		CHANNELS 3 Xrotation Yrotation Zrotation
		JOINT RightUpLeg
		{
			OFFSET -11.333700 -6.187798 -0.413800
			CHANNELS 3 Xrotation Yrotation Zrotation
			JOINT RightLeg
			{
				OFFSET -0.430392 -32.302628 3.733000
				CHANNELS 3 Xrotation Yrotation Zrotation
				JOINT RightFoot
				{
					OFFSET 0.430392 -48.264973 -6.423500
					CHANNELS 3 Xrotation Yrotation Zrotation
					JOINT RightToeBase
					{
						OFFSET -4.230900 -16.068199 23.438400
						CHANNELS 3 Xrotation Yrotation Zrotation
						JOINT RightToe_End
						{
							OFFSET -4.510700 0.695400 19.974600
							CHANNELS 3 Xrotation Yrotation Zrotation
							End Site
							{
								OFFSET 0 0 0
							}
						}
					}
				}
			}
		}
	}
	JOINT Spine_virtual
	{
		OFFSET 0.000000 0.000000 0.000000
		CHANNELS 3 Xrotation Yrotation Zrotation
		JOINT Spine
		{
			OFFSET -0.002400 12.777504 0.315300
			CHANNELS 3 Xrotation Yrotation Zrotation
			JOINT Spine1
			{
				OFFSET -0.002067 5.816869 0.032633
				CHANNELS 3 Xrotation Yrotation Zrotation
				JOINT Spine1_split
				{
					OFFSET -0.002067 5.816869 0.032633
					CHANNELS 3 Xrotation Yrotation Zrotation
					JOINT Spine2
					{
						OFFSET -0.002067 5.816869 0.032633
						CHANNELS 3 Xrotation Yrotation Zrotation
						JOINT Neck_virtual
						{
							OFFSET 0.000000 0.000000 0.000000
							CHANNELS 3 Xrotation Yrotation Zrotation
							JOINT Neck
							{
								OFFSET -0.003700 21.199493 -0.826900
								CHANNELS 3 Xrotation Yrotation Zrotation
								JOINT Head
								{
									OFFSET 0.000000 20.442200 4.834800
									CHANNELS 3 Xrotation Yrotation Zrotation
									JOINT HeadTop_End
									{
										OFFSET 0.000000 34.668396 4.968400
										CHANNELS 3 Xrotation Yrotation Zrotation
										End Site
										{
											OFFSET 0 0 0
										}
									}
								}
							}
						}
						JOINT LeftShoulder_virtual
						{
							OFFSET 0.000000 0.000000 0.000000
							CHANNELS 3 Xrotation Yrotation Zrotation
							JOINT LeftShoulder
							{
								OFFSET 3.288150 8.794197 -1.372250
								CHANNELS 3 Xrotation Yrotation Zrotation
								JOINT LeftShoulder_split
								{
									OFFSET 3.288150 8.794197 -1.372250
									CHANNELS 3 Xrotation Yrotation Zrotation
									JOINT LeftArm
									{
										OFFSET 11.953299 -2.279007 -0.146200
										CHANNELS 3 Xrotation Yrotation Zrotation
										JOINT LeftForeArm
										{
											OFFSET 18.448900 0.000000 0.000000
											CHANNELS 3 Xrotation Yrotation Zrotation
											JOINT LeftHand
											{
												OFFSET 29.527798 0.000000 0.000000
												CHANNELS 3 Xrotation Yrotation Zrotation
												End Site
												{
													OFFSET 0 0 0
												}
											}
										}
									}
								}
							}
						}
						JOINT RightShoulder_virtual
						{
							OFFSET 0.000000 0.000000 0.000000
							CHANNELS 3 Xrotation Yrotation Zrotation
							JOINT RightShoulder
							{
								OFFSET -3.249400 8.794197 -1.372250
								CHANNELS 3 Xrotation Yrotation Zrotation
								JOINT RightShoulder_split
								{
									OFFSET -3.249400 8.794197 -1.372250
									CHANNELS 3 Xrotation Yrotation Zrotation
									JOINT RightArm
									{
										OFFSET -11.953299 -2.279007 -0.146200
										CHANNELS 3 Xrotation Yrotation Zrotation
										JOINT RightForeArm
										{
											OFFSET -18.448900 0.000000 0.000000
											CHANNELS 3 Xrotation Yrotation Zrotation
											JOINT RightHand
											{
												OFFSET -29.527802 0.000000 0.000000
												CHANNELS 3 Xrotation Yrotation Zrotation
												End Site
												{
													OFFSET 0 0 0
												}
											}
										}
									}
								}
							}
						}
					}
				}
			}
		}
	}
}
MOTION
Frames: 6
Frame Time: 0.03333333
-0.966837 100.400581 0.700535 0.000000 0.000000 0.000000 0.104169 -5.947687 0.425694 -14.803318 -4.898958 10.159228 24.632427 3.711567 0.596157 -1.746912 9.441673 -10.364577 -2.010175 0.636339 -1.411815 0.000000 0.000000 0.000000 1.172564 -6.202850 0.223340 -8.693254 -3.865151 -11.030006 18.564948 0.821626 -0.165433 -7.985147 -11.488173 10.140188 4.769821 -1.338927 -1.755687 0.000000 0.000000 0.000000 1.000049 -3.628172 -1.001796 2.998989 -0.782831 0.948756 2.438019 -0.067522 0.239787 1.090714 -0.373311 -0.161881 0.000000 0.000000 0.000000 2.330021 -0.055151 0.059741 -0.997418 0.428520 1.091923 1.057670 0.696842 2.316004 0.000000 0.000000 0.000000 1.850830 0.109459 0.058492 0.495393 9.798376 -11.590365 -1.276848 -1.293297 -1.200416 13.779969 -8.524611 -50.620994 1.332335 -35.213990 1.589884 0.000000 0.000000 0.000000 2.060832 -0.047147 0.088746 1.553707 -7.645017 12.867953 0.809457 2.049060 -2.201120 5.655586 20.339665 60.946591 2.652176 24.275433 1.043344 0.000000 0.000000 0.000000 
-1.051342 100.602432 0.536221 0.000000 0.000000 0.000000 0.207059 -5.420980 0.827326 -15.019859 -3.924628 9.598669 24.602046 2.627073 0.600913 -0.135887 7.894289 -11.477800 -3.308629 0.485252 -0.608131 0.000000 0.000000 0.000000 1.079922 -6.080435 0.544871 -8.992029 -4.412513 -11.444948 18.234216 0.704727 -0.110825 -8.137030 -10.999408 9.061095 5.674944 -1.370694 -1.215462 0.000000 0.000000 0.000000 1.206768 -3.391359 -0.368462 2.982382 -0.901304 0.806731 2.259097 -0.123905 0.201965 0.865711 -0.520194 -0.146569 0.000000 0.000000 0.000000 2.250662 -0.114012 0.045149 -0.695389 0.543710 0.779693 1.436596 0.873968 2.368648 0.000000 0.000000 0.000000 1.796812 0.028003 0.019047 0.536173 9.604971 -11.516208 -1.274530 -1.142264 -1.124168 13.438837 -9.258605 -50.915037 1.371783 -35.681957 1.647372 0.000000 0.000000 0.000000 2.029290 -0.124720 0.092108 1.623073 -7.670133 12.828067 0.677327 2.050724 -2.497164 5.487776 20.582294 60.775242 2.592335 25.347081 1.061976 0.000000 0.000000 0.000000 
-1.253551 100.926826 0.208275 0.000000 0.000000 0.000000 0.357515 -5.039449 1.731286 -14.041533 -2.192901 8.146735 23.201289 1.973361 0.470316 0.222393 5.934855 -11.086883 -7.109394 0.162679 0.907083 0.000000 0.000000 0.000000 1.149820 -5.822931 1.361100 -10.227796 -4.924678 -12.134554 19.002631 0.739298 -0.056858 -7.810243 -10.124945 7.412382 4.242419 -1.272486 -0.841380 0.000000 0.000000 0.000000 1.391670 -3.302921 0.676416 3.039935 -1.289906 0.346698 1.965613 -0.245514 0.100024 0.828557 -0.475829 -0.127466 0.000000 0.000000 0.000000 1.950207 -0.215940 -0.014499 -0.352190 0.606126 0.467672 2.358672 1.089779 2.459675 0.000000 0.000000 0.000000 1.572671 -0.106639 -0.041466 0.545711 9.117163 -11.411139 -1.102751 -0.829082 -1.009632 13.481169 -10.423406 -51.238051 1.130471 -36.207994 1.456636 0.000000 0.000000 0.000000 1.818912 -0.254649 0.078037 1.668174 -7.526152 12.765511 0.642293 2.004600 -2.733551 5.525821 20.954103 60.545153 2.427528 26.663925 1.070282 0.000000 0.000000 0.000000 
-1.465647 101.079681 -0.076298 0.000000 0.000000 0.000000 0.476086 -4.993692 2.849334 -12.466697 0.338399 6.334861 21.130633 2.338922 0.108349 -1.482396 4.393139 -8.864401 -7.681055 0.035775 1.033284 0.000000 0.000000 0.000000 1.229372 -5.612721 2.411435 -12.366191 -5.343959 -12.812386 21.105676 0.877944 0.004342 -6.840620 -9.063378 5.371116 0.162610 -1.209295 -0.554153 0.000000 0.000000 0.000000 1.536455 -3.779935 1.826128 3.225361 -1.871764 -0.349112 1.587608 -0.409201 -0.025087 0.850678 -0.336635 -0.083738 0.000000 0.000000 0.000000 1.525757 -0.329987 -0.098992 -0.038671 0.607336 0.238517 3.727011 1.385652 2.546863 0.000000 0.000000 0.000000 1.228217 -0.259999 -0.103581 0.517870 8.384259 -11.274618 -0.908473 -0.402229 -0.831055 13.856059 -11.814724 -51.579837 0.698882 -36.641902 1.086485 0.000000 0.000000 0.000000 1.480270 -0.399211 0.057348 1.673312 -7.202581 12.780301 0.625481 1.905852 -2.809876 5.732776 21.412539 60.252001 2.222643 27.850580 1.034900 0.000000 0.000000 0.000000 
-1.696282 100.880966 -0.276443 0.000000 0.000000 0.000000 0.648033 -5.414126 3.849126 -11.364470 3.166369 4.768004 19.419379 3.250954 -0.417511 -3.984705 3.211170 -6.211495 -2.999372 0.219811 -0.732898 0.000000 0.000000 0.000000 1.343746 -5.944731 3.403835 -15.146515 -5.641645 -13.132573 24.091921 1.158638 0.062623 -5.355258 -7.799118 3.257778 -5.620603 -1.253331 -0.539454 0.000000 0.000000 0.000000 1.491089 -4.916822 2.774480 3.542504 -2.503599 -1.091254 1.186068 -0.572607 -0.119455 1.018681 -0.145647 -0.093451 0.000000 0.000000 0.000000 1.089896 -0.430431 -0.177349 0.177117 0.565423 0.126757 5.417255 1.778072 2.569483 0.000000 0.000000 0.000000 0.847759 -0.390655 -0.141154 0.453887 7.525887 -11.090124 -0.870230 -0.056738 -0.674725 14.491582 -13.300830 -51.896163 0.236370 -36.966118 0.684617 0.000000 0.000000 0.000000 1.084952 -0.528002 0.041016 1.630675 -6.706242 12.961180 0.533827 1.733589 -2.827304 6.003658 21.828827 59.884954 2.040925 28.726529 0.948594 0.000000 0.000000 0.000000 
-1.835995 100.294785 -0.246536 0.000000 0.000000 0.000000 0.754534 -6.433069 4.386832 -10.656661 5.445961 3.820064 18.263292 3.825468 -0.883925 -6.170901 1.945842 -4.215202 1.714403 0.316444 -1.878510 0.000000 0.000000 0.000000 1.399003 -6.826635 4.045234 -18.109331 -5.878370 -12.857776 27.373848 1.684018 0.181577 -3.595584 -6.194125 1.301474 -11.223146 -1.358745 -0.843874 0.000000 0.000000 0.000000 1.302888 -6.487393 3.314261 3.969990 -3.017348 -1.699256 0.836335 -0.690763 -0.151343 1.244250 -0.021622 -0.054494 0.000000 0.000000 0.000000 0.737891 -0.494620 -0.225839 0.284406 0.499128 0.112354 7.342814 2.272479 2.450633 0.000000 0.000000 0.000000 0.510781 -0.476586 -0.135660 0.379752 6.688708 -10.844401 -0.980797 0.124812 -0.485328 15.287495 -14.775127 -52.121590 -0.078323 -37.205048 0.397481 0.000000 0.000000 0.000000 0.712559 -0.626708 0.039040 1.549790 -6.068936 13.367369 0.400048 1.541923 -2.805693 6.263047 22.031470 59.489944 1.921251 29.373495 0.814782 0.000000 0.000000 0.000000 
